<!DOCTYPE svg PUBLIC "-//W3C//DTD SVG 1.1//EN" "http://www.w3.org/Graphics/SVG/1.1/DTD/svg11.dtd">

<!-- Uploaded to: SVG Repo, www.svgrepo.com, Transformed by: SVG Repo Mixer Tools -->
<svg fill="#ffffff" height="800px" width="800px" version="1.1" id="Layer_1" xmlns="http://www.w3.org/2000/svg" xmlns:xlink="http://www.w3.org/1999/xlink" viewBox="0 0 512.016 512.016" xml:space="preserve" stroke="#ffffff">

<g id="SVGRepo_bgCarrier" stroke-width="0"/>

<g id="SVGRepo_tracerCarrier" stroke-linecap="round" stroke-linejoin="round"/>

<g id="SVGRepo_iconCarrier"> <g> <g> <path d="M472.413,64.464l-213.333-64c-2.005-0.619-4.117-0.619-6.123,0l-213.333,64c-4.523,1.365-7.616,5.504-7.616,10.219 v234.667c0,94.315,143.829,178.219,220.843,202.197c1.024,0.299,2.091,0.469,3.157,0.469s2.133-0.171,3.157-0.469 c44.459-13.824,111.083-47.723,159.552-91.989c0.277-0.256,0.576-0.491,0.811-0.768c35.051-32.256,60.48-69.888,60.48-109.44 V74.683C480.008,69.968,476.915,65.829,472.413,64.464z M458.717,309.349h-0.043c0,29.611-18.709,59.776-46.336,87.168 c-12.011-12.885-27.243-22.272-44.245-26.539l-58.773-14.677l-4.352-17.408c15.573-15.915,26.325-37.269,29.909-59.243 c9.173-3.285,16.107-11.499,17.365-21.632l3.947-31.552c0.917-7.445-1.365-14.955-6.293-20.629 c-2.432-2.773-5.397-4.971-8.683-6.528l1.323-26.688l5.184-5.205c9.579-10.176,17.557-27.541,1.173-52.565 c-12.373-18.901-33.237-28.48-62.059-28.48c-11.115,0-36.608,0-60.629,15.829c-69.248,1.728-78.229,35.989-78.229,65.792 c0,6.763,1.493,20.992,2.624,30.763c-3.669,1.536-6.997,3.883-9.664,6.912c-5.013,5.696-7.36,13.269-6.421,20.8l3.947,31.531 c1.344,10.837,9.173,19.477,19.264,22.229c3.563,21.077,13.76,41.664,28.373,57.237l-4.715,18.859L122.611,370 c-11.904,2.965-23.104,8.448-32.939,15.957c-21.973-24.491-36.288-50.752-36.288-76.587V82.64l202.667-60.8l202.667,60.8V309.349z "/> </g> </g> </g>

</svg>